<?xml version="1.0" encoding="UTF-8" standalone="no"?>
<svg
   width="224"
   height="217"
   version="1.1"
   viewBox="0 0 224 217"
   id="svg465"
   sodipodi:docname="assets-Dark.svg"
   inkscape:version="1.2.2 (b0a8486541, 2022-12-01)"
   xmlns:inkscape="http://www.inkscape.org/namespaces/inkscape"
   xmlns:sodipodi="http://sodipodi.sourceforge.net/DTD/sodipodi-0.dtd"
   xmlns:xlink="http://www.w3.org/1999/xlink"
   xmlns="http://www.w3.org/2000/svg"
   xmlns:svg="http://www.w3.org/2000/svg">
  <sodipodi:namedview
     id="namedview467"
     pagecolor="#ffffff"
     bordercolor="#000000"
     borderopacity="0.25"
     inkscape:showpageshadow="2"
     inkscape:pageopacity="0.0"
     inkscape:pagecheckerboard="0"
     inkscape:deskcolor="#d1d1d1"
     showgrid="false"
     inkscape:zoom="49.217239"
     inkscape:cx="14.52743"
     inkscape:cy="182.92371"
     inkscape:window-width="1920"
     inkscape:window-height="1152"
     inkscape:window-x="0"
     inkscape:window-y="22"
     inkscape:window-maximized="1"
     inkscape:current-layer="svg465" />
  <defs
     id="defs9">
    <linearGradient
       id="selected_bg_color">
      <stop
         stop-color="#5294e2"
         offset="0"
         id="stop2" />
    </linearGradient>
    <linearGradient
       id="linearGradient4409"
       x1="152"
       x2="152"
       y1="564.36"
       y2="572.36"
       gradientTransform="translate(-12)"
       gradientUnits="userSpaceOnUse"
       xlink:href="#selected_bg_color" />
    <linearGradient
       id="linearGradient4411"
       x1="568.36"
       x2="568.36"
       y1="-156"
       y2="-148"
       gradientTransform="translate(0,12)"
       gradientUnits="userSpaceOnUse"
       xlink:href="#selected_bg_color" />
    <linearGradient
       id="linearGradient4413"
       x1="608.36"
       x2="608.36"
       y1="-158"
       y2="-150"
       gradientTransform="translate(0,12)"
       gradientUnits="userSpaceOnUse"
       xlink:href="#selected_bg_color" />
    <linearGradient
       id="linearGradient4415"
       x1="154"
       x2="154"
       y1="601.86"
       y2="606.36"
       gradientTransform="translate(-12)"
       gradientUnits="userSpaceOnUse"
       xlink:href="#selected_bg_color" />
  </defs>
  <g
     id="title-1-active"
     transform="matrix(0.16667,0,0,0.92857143,1.8333,-375.54857)">
    <path
       id="rect1566"
       style="fill:#373737"
       d="m 7,557.35999 h 24 v 28 H 7 Z" />
    <path
       id="rect1568"
       style="opacity:0.1;fill:#373737;fill-opacity:1"
       d="m 7,558.35999 h 24 v 1 H 7 Z" />
  </g>
  <g
     id="stick-active"
     transform="matrix(0.92857143,0,0,0.92857143,3.1428571,-507.54857)">
    <use
       id="use4210"
       transform="translate(135,-2.2617e-5)"
       width="100%"
       height="100%"
       xlink:href="#g4206" />
    <g
       transform="translate(2,3)"
       fill="#adadad"
       id="g17">
      <rect
         x="151"
         y="564.35999"
         width="2"
         height="8"
         id="rect13" />
      <rect
         transform="rotate(90)"
         x="567.35999"
         y="-156"
         width="2"
         height="8"
         id="rect15" />
    </g>
  </g>
  <g
     id="stick-pressed"
     transform="matrix(0.92857143,0,0,0.92857143,22.928571,-507.54857)">
    <use
       transform="translate(11,5.0652e-5)"
       width="100%"
       height="100%"
       xlink:href="#use4210"
       id="use20" />
    <g
       transform="translate(25,3)"
       id="g26">
      <rect
         x="139"
         y="564.35999"
         width="2"
         height="8"
         fill="url(#linearGradient4409)"
         id="rect22"
         style="fill:url(#linearGradient4409)" />
      <rect
         transform="rotate(90)"
         x="567.35999"
         y="-144"
         width="2"
         height="8"
         fill="url(#linearGradient4411)"
         id="rect24"
         style="fill:url(#linearGradient4411)" />
    </g>
  </g>
  <g
     id="stick-inactive"
     transform="matrix(0.92857143,0,0,0.92857143,16.714286,-507.54857)">
    <use
       transform="translate(50,5.0652e-5)"
       width="100%"
       height="100%"
       xlink:href="#use4210"
       id="use29" />
    <g
       transform="translate(48,3)"
       fill="#808080"
       id="g35">
      <rect
         x="155"
         y="564.35999"
         width="2"
         height="8"
         id="rect31" />
      <rect
         transform="rotate(90)"
         x="567.35999"
         y="-160"
         width="2"
         height="8"
         id="rect33" />
    </g>
  </g>
  <g
     id="shade-active"
     transform="matrix(0.92857143,0,0,0.92857143,-0.57142857,-504.19143)">
    <use
       transform="translate(4,33)"
       width="100%"
       height="100%"
       xlink:href="#use4210"
       id="use38" />
    <g
       transform="translate(-4.68e-6,-1)"
       fill="#adadad"
       id="g44">
      <rect
         transform="rotate(90)"
         x="607.35999"
         y="-162"
         width="2"
         height="8"
         id="rect40" />
      <path
         d="m 158,601.86 4,4.5 h -8 z"
         id="path42" />
    </g>
  </g>
  <g
     id="shade-pressed"
     transform="matrix(0.92857143,0,0,0.92857143,21.928571,-504.19143)">
    <use
       transform="translate(11,33)"
       width="100%"
       height="100%"
       xlink:href="#use4210"
       id="use47" />
    <g
       transform="translate(23,-1)"
       id="g53">
      <rect
         transform="rotate(90)"
         x="607.35999"
         y="-146"
         width="2"
         height="8"
         fill="url(#linearGradient4413)"
         id="rect49"
         style="fill:url(#linearGradient4413)" />
      <path
         d="m 142,601.86 4,4.5 h -8 z"
         fill="url(#linearGradient4415)"
         id="path51"
         style="fill:url(#linearGradient4415)" />
    </g>
  </g>
  <g
     id="shade-inactive"
     transform="matrix(0.92857143,0,0,0.92857143,15.714286,-504.19143)">
    <use
       transform="translate(50,33)"
       width="100%"
       height="100%"
       xlink:href="#use4210"
       id="use56" />
    <g
       transform="translate(46,-1)"
       fill="#808080"
       id="g62">
      <rect
         transform="rotate(90)"
         x="607.35999"
         y="-162"
         width="2"
         height="8"
         id="rect58" />
      <path
         d="m 158,601.86 4,4.5 h -8 z"
         id="path60" />
    </g>
  </g>
  <use
     id="title-2-active"
     transform="translate(7)"
     width="100%"
     height="100%"
     xlink:href="#title-1-active" />
  <use
     id="title-3-active"
     transform="translate(14)"
     width="100%"
     height="100%"
     xlink:href="#title-1-active" />
  <use
     id="title-4-active"
     transform="translate(21)"
     width="100%"
     height="100%"
     xlink:href="#title-1-active" />
  <use
     id="title-5-active"
     transform="translate(28)"
     width="100%"
     height="100%"
     xlink:href="#title-1-active" />
  <use
     id="title-1-inactive"
     transform="translate(35)"
     width="100%"
     height="100%"
     xlink:href="#title-1-active" />
  <use
     id="title-2-inactive"
     transform="translate(42)"
     width="100%"
     height="100%"
     xlink:href="#title-1-active" />
  <use
     id="title-3-inactive"
     transform="translate(49)"
     width="100%"
     height="100%"
     xlink:href="#title-1-active" />
  <use
     id="title-4-inactive"
     transform="translate(56)"
     width="100%"
     height="100%"
     xlink:href="#title-1-active" />
  <use
     id="title-5-inactive"
     transform="translate(63)"
     width="100%"
     height="100%"
     xlink:href="#title-1-active" />
  <g
     id="close-pressed"
     transform="matrix(0.92857143,0,0,0.92857143,1.2142857,-507.54857)">
    <use
       transform="translate(66,-2.2617e-5)"
       width="100%"
       height="100%"
       xlink:href="#g4206"
       id="use74" />
    <g
       transform="translate(73,559.36)"
       enable-background="new"
       id="g87">
      <g
         transform="translate(0,-1028.4)"
         id="g85">
        <g
           id="titlebutton-close-active"
           transform="translate(-437,1218)">
          <g
             transform="translate(-882,-432.64)"
             id="g80">
            <g
               transform="translate(1323,246.87)"
               fill="#ffffff"
               id="g78">
              <g
                 transform="matrix(0.75,0,0,0.75,2,2.0547)"
                 fill="#ffffff"
                 id="g76" />
            </g>
          </g>
          <rect
             x="441"
             y="-185.64"
             width="16"
             height="16"
             fill="none"
             id="rect82" />
        </g>
      </g>
    </g>
    <g
       transform="translate(73,-469)"
       enable-background="new"
       id="g95">
      <path
         d="m 12,1047.4 c 3.8659,0 6.9999,-3.134 6.9999,-7 0,-3.866 -3.134,-7 -6.9999,-7 -3.866,0 -7.0001,3.134 -7.0001,7 0,3.866 3.134,7 7.0001,7"
         fill="#e9524a"
         fill-rule="evenodd"
         id="path89" />
      <path
         d="m 9.1716,1037.5 c -0.39174,0.3917 -0.39174,1.0224 0,1.4142 l 1.4142,1.4142 -1.4142,1.4142 c -0.39174,0.3918 -0.39174,1.0225 0,1.4142 0.39174,0.3918 1.0225,0.3918 1.4142,0 l 1.4142,-1.4142 1.4142,1.4142 c 0.39174,0.3918 1.0225,0.3918 1.4142,0 0.39174,-0.3917 0.39174,-1.0224 0,-1.4142 l -1.4142,-1.4142 1.4142,-1.4142 c 0.39174,-0.3918 0.39174,-1.0225 0,-1.4142 -0.39174,-0.3918 -1.0225,-0.3918 -1.4142,0 L 12,1038.9142 10.5858,1037.5 c -0.39174,-0.3918 -1.0225,-0.3918 -1.4142,0 z"
         enable-background="new"
         fill="#000000"
         opacity="0.5"
         id="path91" />
      <path
         d="m 12,1047.4 c 3.8659,0 6.9999,-3.134 6.9999,-7 0,-3.866 -3.134,-7 -6.9999,-7 -3.866,0 -7.0001,3.134 -7.0001,7 0,3.866 3.134,7 7.0001,7"
         fill="#000000"
         fill-rule="evenodd"
         opacity="0.2"
         id="path93" />
    </g>
  </g>
  <g
     id="maximize-pressed"
     transform="matrix(0.92857143,0,0,0.92857143,1.2142857,-504.19143)">
    <use
       transform="translate(66,33)"
       width="100%"
       height="100%"
       xlink:href="#g4206"
       id="use98" />
    <g
       transform="translate(73,592.36)"
       enable-background="new"
       id="g107">
      <g
         transform="translate(0,-1028.4)"
         id="g105">
        <g
           id="titlebutton-max-active"
           transform="translate(-408,1218)">
          <g
             transform="translate(-882,-432.64)"
             id="g100" />
          <rect
             x="412"
             y="-185.64"
             width="16"
             height="16"
             fill="none"
             id="rect102" />
        </g>
      </g>
    </g>
    <g
       transform="translate(73,-436)"
       enable-background="new"
       id="g115">
      <path
         d="m 12,1047.4 c 3.8659,0 6.9999,-3.134 6.9999,-7 0,-3.866 -3.134,-7 -6.9999,-7 -3.866,0 -7.0001,3.134 -7.0001,7 0,3.866 3.134,7 7.0001,7"
         fill="#59c837"
         fill-rule="evenodd"
         id="path109" />
      <path
         d="m 10.414,1037.4 4.5859,4.5859 V 1038.4 c 0,-0.4155 -0.5845,-1 -1,-1 z m -1.4141,1.4141 v 3.5859 c 0,0.4155 0.5845,1 1,1 h 3.5859 z"
         fill="#000000"
         opacity="0.5"
         id="path111" />
      <path
         d="m 12,1047.4 c 3.8659,0 6.9999,-3.134 6.9999,-7 0,-3.866 -3.134,-7 -6.9999,-7 -3.866,0 -7.0001,3.134 -7.0001,7 0,3.866 3.134,7 7.0001,7"
         fill="#000000"
         fill-rule="evenodd"
         opacity="0.2"
         id="path113" />
    </g>
  </g>
  <g
     id="hide-pressed"
     transform="matrix(0.92857143,0,0,0.92857143,1.2142857,-501.83429)">
    <use
       transform="translate(66,66)"
       width="100%"
       height="100%"
       xlink:href="#g4206"
       id="use118" />
    <g
       transform="translate(73,625.36)"
       enable-background="new"
       id="g127">
      <g
         transform="translate(0,-1028.4)"
         id="g125">
        <g
           id="titlebutton-min-active"
           transform="translate(-379,1218)">
          <g
             transform="translate(-882,-432.64)"
             id="g120" />
          <rect
             x="383"
             y="-185.64"
             width="16"
             height="16"
             fill="none"
             id="rect122" />
        </g>
      </g>
    </g>
    <g
       transform="translate(73,-403)"
       enable-background="new"
       id="g135">
      <path
         d="m 12,1047.4 c 3.8659,0 6.9999,-3.134 6.9999,-7 0,-3.866 -3.134,-7 -6.9999,-7 -3.866,0 -7.0001,3.134 -7.0001,7 0,3.866 3.134,7 7.0001,7"
         fill="#f1ae1b"
         fill-rule="evenodd"
         id="path129" />
      <rect
         x="8"
         y="1039.4"
         width="8"
         height="2"
         ry="1"
         fill="#000000"
         opacity="0.5"
         id="rect131" />
      <path
         d="m 12,1047.4 c 3.8659,0 6.9999,-3.134 6.9999,-7 0,-3.866 -3.134,-7 -6.9999,-7 -3.866,0 -7.0001,3.134 -7.0001,7 0,3.866 3.134,7 7.0001,7"
         fill="#000000"
         fill-rule="evenodd"
         opacity="0.2"
         id="path133" />
    </g>
  </g>
  <g
     id="close-inactive"
     transform="matrix(0.92857143,0,0,0.92857143,3.5714286,-507.54857)">
    <use
       transform="translate(99,-2.2617e-5)"
       width="100%"
       height="100%"
       xlink:href="#g4206"
       id="use138" />
    <g
       transform="translate(106,559.36)"
       enable-background="new"
       id="g151">
      <g
         transform="translate(0,-1028.4)"
         id="g149">
        <g
           id="titlebutton-close-backdrop"
           transform="translate(-641,1218)"
           opacity="0.45">
          <g
             transform="translate(-678,-432.64)"
             opacity="1"
             id="g144">
            <g
               transform="translate(1323,246.87)"
               fill="#ffffff"
               id="g142">
              <g
                 transform="matrix(0.75,0,0,0.75,2,2.0547)"
                 fill="#ffffff"
                 id="g140" />
            </g>
          </g>
          <rect
             x="645"
             y="-185.64"
             width="16"
             height="16"
             fill="none"
             opacity="1"
             id="rect146" />
        </g>
      </g>
    </g>
    <g
       transform="translate(106,-469)"
       enable-background="new"
       id="g155">
      <path
         d="m 12,1047.4 c 3.8659,0 6.9999,-3.134 6.9999,-7 0,-3.866 -3.134,-7 -6.9999,-7 -3.866,0 -7.0001,3.134 -7.0001,7 0,3.866 3.134,7 7.0001,7"
         fill="#5d5d5d"
         fill-rule="evenodd"
         id="path153" />
    </g>
  </g>
  <g
     id="maximize-inactive"
     transform="matrix(0.92857143,0,0,0.92857143,3.5714286,-504.19143)">
    <use
       transform="translate(99,33)"
       width="100%"
       height="100%"
       xlink:href="#g4206"
       id="use158" />
    <g
       transform="translate(106,592.36)"
       enable-background="new"
       id="g167">
      <g
         transform="translate(0,-1028.4)"
         id="g165">
        <g
           id="titlebutton-max-backdrop"
           transform="translate(-612,1201)"
           opacity="0.45">
          <g
             transform="translate(-781,-415.64)"
             opacity="1"
             id="g160" />
          <rect
             x="616"
             y="-168.64"
             width="16"
             height="16"
             fill="none"
             opacity="1"
             id="rect162" />
        </g>
      </g>
    </g>
    <g
       transform="translate(106,-436)"
       enable-background="new"
       id="g171">
      <path
         d="m 12,1047.4 c 3.8659,0 6.9999,-3.134 6.9999,-7 0,-3.866 -3.134,-7 -6.9999,-7 -3.866,0 -7.0001,3.134 -7.0001,7 0,3.866 3.134,7 7.0001,7"
         fill="#5d5d5d"
         fill-rule="evenodd"
         id="path169" />
    </g>
  </g>
  <g
     id="hide-inactive"
     transform="matrix(0.92857143,0,0,0.92857143,3.5714286,-501.83429)">
    <use
       transform="translate(99,66)"
       width="100%"
       height="100%"
       xlink:href="#g4206"
       id="use174" />
    <g
       transform="translate(106,625.36)"
       enable-background="new"
       id="g183">
      <g
         transform="translate(0,-1028.4)"
         id="g181">
        <g
           id="titlebutton-min-backdrop"
           transform="translate(-583,1201)"
           opacity="0.45">
          <g
             transform="translate(-781,-415.64)"
             opacity="1"
             id="g176" />
          <rect
             x="587"
             y="-168.64"
             width="16"
             height="16"
             fill="none"
             opacity="1"
             id="rect178" />
        </g>
      </g>
    </g>
    <g
       transform="translate(106,-403)"
       enable-background="new"
       id="g187">
      <path
         d="m 12,1047.4 c 3.8659,0 6.9999,-3.134 6.9999,-7 0,-3.866 -3.134,-7 -6.9999,-7 -3.866,0 -7.0001,3.134 -7.0001,7 0,3.866 3.134,7 7.0001,7"
         fill="#5d5d5d"
         fill-rule="evenodd"
         id="path185" />
    </g>
  </g>
  <g
     id="hide-prelight"
     transform="matrix(0.92857143,0,0,0.92857143,-1.1428571,-501.83429)">
    <use
       transform="translate(33,66)"
       width="100%"
       height="100%"
       xlink:href="#g4206"
       id="use190" />
    <g
       transform="translate(40,625.36)"
       enable-background="new"
       id="g199">
      <g
         transform="translate(0,-1028.4)"
         id="g197">
        <g
           id="titlebutton-min-hover"
           transform="translate(-480,1218)">
          <g
             transform="translate(-781,-432.64)"
             id="g192" />
          <rect
             x="484"
             y="-185.64"
             width="16"
             height="16"
             fill="none"
             id="rect194" />
        </g>
      </g>
    </g>
    <g
       transform="translate(40,-403)"
       enable-background="new"
       id="g207">
      <path
         d="m 12,1047.4 c 3.8659,0 6.9999,-3.134 6.9999,-7 0,-3.866 -3.134,-7 -6.9999,-7 -3.866,0 -7.0001,3.134 -7.0001,7 0,3.866 3.134,7 7.0001,7"
         fill="#f1ae1b"
         fill-rule="evenodd"
         id="path201" />
      <path
         d="m 12,1046.9 c 3.5898,0 6.4999,-2.9103 6.4999,-6.5001 0,-3.5899 -2.9102,-6.5 -6.4999,-6.5 -3.5899,0 -6.5001,2.9101 -6.5001,6.5 0,3.5898 2.9102,6.5001 6.5001,6.5001"
         fill="#f1ae1b"
         fill-rule="evenodd"
         id="path203" />
      <rect
         x="8"
         y="1039.4"
         width="8"
         height="2"
         ry="1"
         fill="#000000"
         opacity="0.5"
         id="rect205" />
    </g>
  </g>
  <g
     id="maximize-prelight"
     transform="matrix(0.92857143,0,0,0.92857143,-1.1428571,-504.19143)">
    <use
       transform="translate(33,33)"
       width="100%"
       height="100%"
       xlink:href="#g4206"
       id="use210" />
    <g
       transform="translate(40,592.36)"
       enable-background="new"
       id="g219">
      <g
         transform="translate(0,-1028.4)"
         id="g217">
        <g
           id="titlebutton-max-hover"
           transform="translate(-509,1218)">
          <g
             transform="translate(-781,-432.64)"
             id="g212" />
          <rect
             x="513"
             y="-185.64"
             width="16"
             height="16"
             fill="none"
             id="rect214" />
        </g>
      </g>
    </g>
    <g
       transform="translate(40,-436)"
       enable-background="new"
       id="g227">
      <path
         d="m 12,1047.4 c 3.8659,0 6.9999,-3.134 6.9999,-7 0,-3.866 -3.134,-7 -6.9999,-7 -3.866,0 -7.0001,3.134 -7.0001,7 0,3.866 3.134,7 7.0001,7"
         fill="#59c837"
         fill-rule="evenodd"
         id="path221" />
      <path
         d="m 12,1046.9 c 3.5898,0 6.4999,-2.9103 6.4999,-6.5001 0,-3.5899 -2.9102,-6.5 -6.4999,-6.5 -3.5899,0 -6.5001,2.9101 -6.5001,6.5 0,3.5898 2.9102,6.5001 6.5001,6.5001"
         fill="#59c837"
         fill-rule="evenodd"
         id="path223" />
      <path
         d="m 10.414,1037.4 4.5859,4.5859 V 1038.4 c 0,-0.4155 -0.5845,-1 -1,-1 z m -1.4141,1.4141 v 3.5859 c 0,0.4155 0.5845,1 1,1 h 3.5859 z"
         fill="#000000"
         opacity="0.5"
         id="path225" />
    </g>
  </g>
  <g
     id="close-prelight"
     transform="matrix(0.92857143,0,0,0.92857143,-1.1428571,-507.54857)">
    <use
       transform="translate(33,-2.2617e-5)"
       width="100%"
       height="100%"
       xlink:href="#g4206"
       id="use230" />
    <g
       transform="translate(40,559.36)"
       enable-background="new"
       id="g243">
      <g
         transform="translate(0,-1028.4)"
         id="g241">
        <g
           id="titlebutton-close-hover"
           transform="translate(-538,1218)">
          <g
             transform="translate(-781,-432.64)"
             id="g236">
            <g
               transform="translate(1323,246.87)"
               fill="#ffffff"
               id="g234">
              <g
                 transform="matrix(0.75,0,0,0.75,2,2.0547)"
                 fill="#ffffff"
                 id="g232" />
            </g>
          </g>
          <rect
             x="542"
             y="-185.64"
             width="16"
             height="16"
             fill="none"
             id="rect238" />
        </g>
      </g>
    </g>
    <g
       transform="translate(40,-469)"
       enable-background="new"
       id="g251">
      <path
         d="m 12,1047.4 c 3.8659,0 6.9999,-3.134 6.9999,-7 0,-3.866 -3.134,-7 -6.9999,-7 -3.866,0 -7.0001,3.134 -7.0001,7 0,3.866 3.134,7 7.0001,7"
         fill="#e9524a"
         fill-rule="evenodd"
         id="path245" />
      <path
         d="m 12,1046.9 c 3.5898,0 6.4999,-2.9103 6.4999,-6.5001 0,-3.5899 -2.9102,-6.5 -6.4999,-6.5 -3.5899,0 -6.5001,2.9101 -6.5001,6.5 0,3.5898 2.9102,6.5001 6.5001,6.5001"
         fill="#e9524a"
         fill-rule="evenodd"
         id="path247" />
      <path
         d="m 9.1716,1037.5 c -0.39174,0.3917 -0.39174,1.0224 0,1.4142 l 1.4142,1.4142 -1.4142,1.4142 c -0.39174,0.3918 -0.39174,1.0225 0,1.4142 0.39174,0.3918 1.0225,0.3918 1.4142,0 l 1.4142,-1.4142 1.4142,1.4142 c 0.39174,0.3918 1.0225,0.3918 1.4142,0 0.39174,-0.3917 0.39174,-1.0224 0,-1.4142 l -1.4142,-1.4142 1.4142,-1.4142 c 0.39174,-0.3918 0.39174,-1.0225 0,-1.4142 -0.39174,-0.3918 -1.0225,-0.3918 -1.4142,0 L 12,1038.9142 10.5858,1037.5 c -0.39174,-0.3918 -1.0225,-0.3918 -1.4142,0 z"
         enable-background="new"
         fill="#000000"
         opacity="0.5"
         id="path249" />
    </g>
  </g>
  <g
     id="hide-active"
     transform="matrix(0.92857143,0,0,0.92857143,-3.5,-501.83429)">
    <use
       transform="translate(0,66)"
       width="100%"
       height="100%"
       xlink:href="#g4206"
       id="use254" />
    <g
       transform="translate(7,625.36)"
       enable-background="new"
       id="g263">
      <g
         transform="translate(0,-1028.4)"
         id="g261">
        <g
           id="titlebutton-min"
           transform="translate(-583,1218)"
           opacity="0.8">
          <g
             transform="translate(-781,-432.64)"
             opacity="1"
             id="g256" />
          <rect
             x="587"
             y="-185.64"
             width="16"
             height="16"
             fill="none"
             opacity="1"
             id="rect258" />
        </g>
      </g>
    </g>
    <g
       transform="translate(7,-403)"
       enable-background="new"
       fill="#f1ae1b"
       fill-rule="evenodd"
       id="g269">
      <path
         d="m 12,1047.4 c 3.8659,0 6.9999,-3.134 6.9999,-7 0,-3.866 -3.134,-7 -6.9999,-7 -3.866,0 -7.0001,3.134 -7.0001,7 0,3.866 3.134,7 7.0001,7"
         id="path265" />
      <path
         d="m 12,1046.9 c 3.5898,0 6.4999,-2.9103 6.4999,-6.5001 0,-3.5899 -2.9102,-6.5 -6.4999,-6.5 -3.5899,0 -6.5001,2.9101 -6.5001,6.5 0,3.5898 2.9102,6.5001 6.5001,6.5001"
         id="path267" />
    </g>
  </g>
  <g
     id="maximize-active"
     transform="matrix(0.92857143,0,0,0.92857143,-3.5,-505.19143)">
    <use
       transform="translate(0,33)"
       width="100%"
       height="100%"
       xlink:href="#g4206"
       id="use272" />
    <g
       transform="translate(7,592.36)"
       enable-background="new"
       id="g281">
      <g
         transform="translate(0,-1028.4)"
         id="g279">
        <g
           id="titlebutton-max"
           transform="translate(-612,1218)"
           opacity="0.8">
          <g
             transform="translate(-781,-432.64)"
             opacity="1"
             id="g274" />
          <rect
             x="616"
             y="-185.64"
             width="16"
             height="16"
             fill="none"
             opacity="1"
             id="rect276" />
        </g>
      </g>
    </g>
    <g
       transform="translate(7,-436)"
       enable-background="new"
       fill="#59c837"
       fill-rule="evenodd"
       id="g287">
      <path
         d="m 12,1047.4 c 3.8659,0 6.9999,-3.134 6.9999,-7 0,-3.866 -3.134,-7 -6.9999,-7 -3.866,0 -7.0001,3.134 -7.0001,7 0,3.866 3.134,7 7.0001,7"
         id="path283" />
      <path
         d="m 12,1046.9 c 3.5898,0 6.4999,-2.9103 6.4999,-6.5001 0,-3.5899 -2.9102,-6.5 -6.4999,-6.5 -3.5899,0 -6.5001,2.9101 -6.5001,6.5 0,3.5898 2.9102,6.5001 6.5001,6.5001"
         id="path285" />
    </g>
  </g>
  <g
     id="close-active"
     transform="matrix(0.92857143,0,0,0.92857143,-3.5,-507.54857)">
    <g
       id="g4206">
      <rect
         x="7"
         y="557.35999"
         width="24"
         height="28"
         fill="#373737"
         id="rect290" />
    </g>
    <g
       transform="translate(7,559.36)"
       enable-background="new"
       id="g308">
      <g
         transform="translate(0,-1028.4)"
         id="g306">
        <g
           id="titlebutton-close"
           transform="translate(-641,1218)">
          <g
             transform="translate(-678,-432.64)"
             id="g301">
            <g
               transform="translate(1323,246.87)"
               fill="#ffffff"
               id="g299">
              <g
                 transform="matrix(0.75,0,0,0.75,2,2.0547)"
                 fill="#ffffff"
                 id="g297" />
            </g>
          </g>
          <rect
             x="645"
             y="-185.64"
             width="16"
             height="16"
             fill="none"
             id="rect303" />
        </g>
      </g>
    </g>
    <g
       transform="translate(7,-469)"
       enable-background="new"
       fill="#e9524a"
       fill-rule="evenodd"
       id="g314">
      <path
         d="m 12,1047.4 c 3.8659,0 6.9999,-3.134 6.9999,-7 0,-3.866 -3.134,-7 -6.9999,-7 -3.866,0 -7.0001,3.134 -7.0001,7 0,3.866 3.134,7 7.0001,7"
         id="path310" />
      <path
         d="m 12,1046.9 c 3.5898,0 6.4999,-2.9103 6.4999,-6.5001 0,-3.5899 -2.9102,-6.5 -6.4999,-6.5 -3.5899,0 -6.5001,2.9101 -6.5001,6.5 0,3.5898 2.9102,6.5001 6.5001,6.5001"
         id="path312" />
    </g>
  </g>
  <g
     id="left-active"
     transform="translate(16,-545.36)" />
  <g
     id="bottom-left-active"
     transform="translate(-7,-547.36)" />
  <g
     id="bottom-active"
     transform="matrix(0,-1,-1,0,851.36,239)" />
  <g
     id="maximize-toggled-inactive"
     transform="matrix(0.92857143,0,0,0.92857143,3.5714286,-438.19143)">
    <use
       transform="translate(99,33)"
       width="100%"
       height="100%"
       xlink:href="#g4206"
       id="use332" />
    <g
       transform="translate(106,592.36)"
       enable-background="new"
       id="g342">
      <g
         transform="translate(0,-1028.4)"
         id="g340">
        <g
           transform="translate(-612,1201)"
           opacity="0.45"
           id="g338">
          <g
             transform="translate(-781,-415.64)"
             opacity="1"
             id="g334" />
          <rect
             x="616"
             y="-168.64"
             width="16"
             height="16"
             fill="none"
             opacity="1"
             id="rect336" />
        </g>
      </g>
    </g>
    <g
       transform="translate(106,-436)"
       enable-background="new"
       id="g346">
      <path
         d="m 12,1047.4 c 3.8659,0 6.9999,-3.134 6.9999,-7 0,-3.866 -3.134,-7 -6.9999,-7 -3.866,0 -7.0001,3.134 -7.0001,7 0,3.866 3.134,7 7.0001,7"
         fill="#5d5d5d"
         fill-rule="evenodd"
         id="path344" />
    </g>
  </g>
  <g
     id="maximize-toggled-active"
     transform="matrix(0.92857143,0,0,0.92857143,-3.5,-438.19143)">
    <use
       transform="translate(0,33)"
       width="100%"
       height="100%"
       xlink:href="#g4206"
       id="use349" />
    <g
       transform="translate(7,592.36)"
       enable-background="new"
       id="g359">
      <g
         transform="translate(0,-1028.4)"
         id="g357">
        <g
           transform="translate(-612,1218)"
           opacity="0.8"
           id="g355">
          <g
             transform="translate(-781,-432.64)"
             opacity="1"
             id="g351" />
          <rect
             x="616"
             y="-185.64"
             width="16"
             height="16"
             fill="none"
             opacity="1"
             id="rect353" />
        </g>
      </g>
    </g>
    <g
       transform="translate(7,-436)"
       enable-background="new"
       fill="#59c837"
       fill-rule="evenodd"
       id="g365">
      <path
         d="m 12,1047.4 c 3.8659,0 6.9999,-3.134 6.9999,-7 0,-3.866 -3.134,-7 -6.9999,-7 -3.866,0 -7.0001,3.134 -7.0001,7 0,3.866 3.134,7 7.0001,7"
         id="path361" />
      <path
         d="m 12,1046.9 c 3.5898,0 6.4999,-2.9103 6.4999,-6.5001 0,-3.5899 -2.9102,-6.5 -6.4999,-6.5 -3.5899,0 -6.5001,2.9101 -6.5001,6.5 0,3.5898 2.9102,6.5001 6.5001,6.5001"
         id="path363" />
    </g>
  </g>
  <g
     id="maximize-toggled-prelight"
     transform="matrix(0.92857143,0,0,0.92857143,-1.1428571,-499.47714)">
    <use
       transform="translate(33,99)"
       width="100%"
       height="100%"
       xlink:href="#g4206"
       id="use368" />
    <g
       transform="translate(40,658.36)"
       enable-background="new"
       id="g378">
      <g
         transform="translate(0,-1028.4)"
         id="g376">
        <g
           transform="translate(-509,1218)"
           id="g374">
          <g
             transform="translate(-781,-432.64)"
             id="g370" />
          <rect
             x="513"
             y="-185.64"
             width="16"
             height="16"
             fill="none"
             id="rect372" />
        </g>
      </g>
    </g>
    <path
       d="m 52,677.36 c 3.8659,0 6.9999,-3.134 6.9999,-7 0,-3.866 -3.134,-7 -6.9999,-7 -3.866,0 -7.0001,3.134 -7.0001,7 0,3.866 3.134,7 7.0001,7"
       fill="#59c837"
       fill-rule="evenodd"
       id="path380" />
    <path
       d="m 52,676.86 c 3.5898,0 6.4999,-2.9103 6.4999,-6.5001 0,-3.5899 -2.9102,-6.5 -6.4999,-6.5 -3.5899,0 -6.5001,2.9101 -6.5001,6.5 0,3.5898 2.9102,6.5001 6.5001,6.5001"
       fill="#59c837"
       fill-rule="evenodd"
       id="path382" />
    <g
       transform="translate(-132,891)"
       fill="#000000"
       fill-rule="evenodd"
       opacity="0.5"
       id="g388">
      <path
         d="m 188.21,-220.64 h -3.395 c -0.4504,0 -0.8188,-0.36842 -0.8188,-0.81875 v -3.3951 l 4.2138,4.2138"
         opacity="1"
         id="path384" />
      <path
         d="m 179.79,-220.64 h 3.395 c 0.4504,0 0.8188,0.36842 0.8188,0.81875 v 3.3951 l -4.2138,-4.2138"
         opacity="1"
         id="path386" />
    </g>
  </g>
  <g
     id="maximize-toggled-pressed"
     transform="matrix(0.92857143,0,0,0.92857143,1.2142857,-499.47714)">
    <use
       transform="translate(66,99)"
       width="100%"
       height="100%"
       xlink:href="#g4206"
       id="use391" />
    <g
       transform="translate(73,658.36)"
       enable-background="new"
       id="g401">
      <g
         transform="translate(0,-1028.4)"
         id="g399">
        <g
           transform="translate(-408,1218)"
           id="g397">
          <g
             transform="translate(-882,-432.64)"
             id="g393" />
          <rect
             x="412"
             y="-185.64"
             width="16"
             height="16"
             fill="none"
             id="rect395" />
        </g>
      </g>
    </g>
    <path
       d="m 85,677.36 c 3.8659,0 6.9999,-3.134 6.9999,-7 0,-3.866 -3.134,-7 -6.9999,-7 -3.866,0 -7.0001,3.134 -7.0001,7 0,3.866 3.134,7 7.0001,7"
       fill="#59c837"
       fill-rule="evenodd"
       id="path403" />
    <g
       transform="translate(-99,891)"
       fill="#000000"
       fill-rule="evenodd"
       opacity="0.5"
       id="g409">
      <path
         d="m 188.21,-220.64 h -3.395 c -0.4504,0 -0.8188,-0.36842 -0.8188,-0.81875 v -3.3951 l 4.2138,4.2138"
         opacity="1"
         id="path405" />
      <path
         d="m 179.79,-220.64 h 3.395 c 0.4504,0 0.8188,0.36842 0.8188,0.81875 v 3.3951 l -4.2138,-4.2138"
         opacity="1"
         id="path407" />
    </g>
    <path
       d="m 85,677.36 c 3.8659,0 6.9999,-3.134 6.9999,-7 0,-3.866 -3.134,-7 -6.9999,-7 -3.866,0 -7.0001,3.134 -7.0001,7 0,3.866 3.134,7 7.0001,7"
       fill="#000000"
       fill-rule="evenodd"
       opacity="0.2"
       id="path411" />
  </g>
  <g
     id="menu-active"
     transform="matrix(0.92857143,0,0,0.92857143,-0.57142857,-501.83429)">
    <use
       transform="translate(4,66)"
       width="100%"
       height="100%"
       xlink:href="#use4210"
       id="use414" />
    <path
       id="setting-icon"
       d="m 163.96,636.7 c -0.019,-0.16869 -0.21567,-0.29545 -0.38574,-0.29545 -0.54988,0 -1.0378,-0.32287 -1.2425,-0.82219 -0.20907,-0.51144 -0.0743,-1.1079 0.33555,-1.4838 0.12899,-0.11792 0.14467,-0.31532 0.0365,-0.45244 -0.28144,-0.35739 -0.60132,-0.6802 -0.95059,-0.95998 -0.13676,-0.10976 -0.33742,-0.0945 -0.45602,0.0368 -0.35765,0.3961 -1.0001,0.54331 -1.4965,0.33617 -0.51662,-0.21731 -0.84239,-0.74079 -0.81051,-1.3027 0.0105,-0.1765 -0.11851,-0.32997 -0.29448,-0.35046 -0.4482,-0.0518 -0.90035,-0.0535 -1.3499,-0.004 -0.17396,0.0192 -0.30295,0.16904 -0.2971,0.34332 0.0195,0.55639 -0.31015,1.0707 -0.82164,1.2802 -0.49049,0.20034 -1.1284,0.0544 -1.4854,-0.33819 -0.11797,-0.12931 -0.31537,-0.1452 -0.45281,-0.0381 -0.35962,0.28215 -0.68669,0.60523 -0.97072,0.95968 -0.11078,0.13778 -0.0945,0.33751 0.0358,0.45606 0.41762,0.37818 0.55247,0.9798 0.33551,1.4971 -0.20714,0.49321 -0.71929,0.81108 -1.3056,0.81108 -0.19026,-0.006 -0.32577,0.12157 -0.34658,0.29455 -0.0528,0.45079 -0.0534,0.91012 -0.003,1.3646 0.0188,0.16941 0.22152,0.29505 0.39347,0.29505 0.52251,-0.0134 1.0242,0.31014 1.2346,0.82224 0.20976,0.51143 0.0749,1.1075 -0.33552,1.4837 -0.12837,0.11793 -0.14466,0.31501 -0.0365,0.45214 0.27881,0.35511 0.59873,0.67824 0.94925,0.96034 0.13747,0.11078 0.33751,0.0951 0.45669,-0.0362 0.35899,-0.39707 1.0014,-0.54402 1.4959,-0.33649 0.51791,0.21665 0.84369,0.74009 0.81181,1.3023 -0.0103,0.17659 0.11922,0.33032 0.29447,0.3505 0.22929,0.0268 0.45995,0.0401 0.69125,0.0401 0.21955,0 0.43914,-0.0121 0.6587,-0.0365 0.174,-0.0192 0.30291,-0.16905 0.29706,-0.34363 -0.0201,-0.55608 0.31015,-1.0704 0.82096,-1.2796 0.4938,-0.20169 1.129,-0.0541 1.486,0.33809 0.11864,0.12904 0.31465,0.14462 0.45285,0.0379 0.35896,-0.28148 0.68535,-0.6043 0.97072,-0.95972 0.11073,-0.13748 0.0951,-0.33751 -0.0359,-0.45602 -0.41762,-0.37819 -0.55314,-0.97989 -0.33618,-1.4969 0.20397,-0.48665 0.6971,-0.8134 1.2275,-0.8134 l 0.0742,0.001 c 0.17204,0.014 0.33033,-0.11855 0.35118,-0.29416 0.0529,-0.45119 0.0535,-0.91011 0.002,-1.3646 z m -5.9531,2.6804 c -1.1037,0 -2.0014,-0.89774 -2.0014,-2.0014 0,-1.1036 0.89775,-2.0014 2.0014,-2.0014 1.1036,0 2.0014,0.89779 2.0014,2.0014 0,1.1037 -0.89776,2.0014 -2.0014,2.0014 z"
       clip-rule="evenodd"
       fill="#adadad"
       fill-rule="evenodd"
       stroke-width="0.058824" />
  </g>
  <g
     id="menu-pressed"
     transform="matrix(0.92857143,0,0,0.92857143,21.928571,-501.83429)">
    <use
       transform="translate(11,66)"
       width="100%"
       height="100%"
       xlink:href="#use4210"
       id="use418" />
    <path
       d="m 170.96,636.7 c -0.019,-0.16869 -0.21567,-0.29545 -0.38574,-0.29545 -0.54988,0 -1.0378,-0.32287 -1.2425,-0.82219 -0.20907,-0.51144 -0.0743,-1.1079 0.33555,-1.4838 0.12899,-0.11792 0.14467,-0.31532 0.0365,-0.45244 -0.28144,-0.35739 -0.60132,-0.6802 -0.95059,-0.95998 -0.13676,-0.10976 -0.33742,-0.0945 -0.45602,0.0368 -0.35765,0.3961 -1.0001,0.54331 -1.4965,0.33617 -0.51662,-0.21731 -0.84239,-0.74079 -0.81051,-1.3027 0.0105,-0.1765 -0.11851,-0.32997 -0.29448,-0.35046 -0.4482,-0.0518 -0.90035,-0.0535 -1.3499,-0.004 -0.17396,0.0192 -0.30295,0.16904 -0.2971,0.34332 0.0195,0.55639 -0.31015,1.0707 -0.82164,1.2802 -0.49049,0.20034 -1.1284,0.0544 -1.4854,-0.33819 -0.11797,-0.12931 -0.31537,-0.1452 -0.45281,-0.0381 -0.35962,0.28215 -0.68669,0.60523 -0.97072,0.95968 -0.11078,0.13778 -0.0945,0.33751 0.0358,0.45606 0.41762,0.37818 0.55247,0.9798 0.33551,1.4971 -0.20714,0.49321 -0.71929,0.81108 -1.3056,0.81108 -0.19026,-0.006 -0.32577,0.12157 -0.34658,0.29455 -0.0528,0.45079 -0.0534,0.91012 -0.003,1.3646 0.0188,0.16941 0.22152,0.29505 0.39347,0.29505 0.52251,-0.0134 1.0242,0.31014 1.2346,0.82224 0.20976,0.51143 0.0749,1.1075 -0.33552,1.4837 -0.12837,0.11793 -0.14466,0.31501 -0.0365,0.45214 0.27881,0.35511 0.59873,0.67824 0.94925,0.96034 0.13747,0.11078 0.33751,0.0951 0.45669,-0.0362 0.35899,-0.39707 1.0014,-0.54402 1.4959,-0.33649 0.51791,0.21665 0.84369,0.74009 0.81181,1.3023 -0.0103,0.17659 0.11922,0.33032 0.29447,0.3505 0.22929,0.0268 0.45995,0.0401 0.69125,0.0401 0.21955,0 0.43914,-0.0121 0.6587,-0.0365 0.174,-0.0192 0.30291,-0.16905 0.29706,-0.34363 -0.0201,-0.55608 0.31015,-1.0704 0.82096,-1.2796 0.4938,-0.20169 1.129,-0.0541 1.486,0.33809 0.11864,0.12904 0.31465,0.14462 0.45285,0.0379 0.35896,-0.28148 0.68535,-0.6043 0.97072,-0.95972 0.11073,-0.13748 0.0951,-0.33751 -0.0359,-0.45602 -0.41762,-0.37819 -0.55314,-0.97989 -0.33618,-1.4969 0.20397,-0.48665 0.6971,-0.8134 1.2275,-0.8134 l 0.0742,0.001 c 0.17204,0.014 0.33033,-0.11855 0.35118,-0.29416 0.0529,-0.45119 0.0535,-0.91011 0.002,-1.3646 z m -5.9531,2.6804 c -1.1037,0 -2.0014,-0.89774 -2.0014,-2.0014 0,-1.1036 0.89775,-2.0014 2.0014,-2.0014 1.1036,0 2.0014,0.89779 2.0014,2.0014 0,1.1037 -0.89776,2.0014 -2.0014,2.0014 z"
       clip-rule="evenodd"
       fill="#5294e2"
       fill-rule="evenodd"
       stroke-width="0.058824"
       id="path420" />
  </g>
  <g
     id="menu-inactive"
     transform="matrix(0.92857143,0,0,0.92857143,15.714286,-501.83429)">
    <use
       transform="translate(50,66)"
       width="100%"
       height="100%"
       xlink:href="#use4210"
       id="use423" />
    <path
       d="m 209.96,636.7 c -0.019,-0.16869 -0.21567,-0.29545 -0.38574,-0.29545 -0.54988,0 -1.0378,-0.32287 -1.2425,-0.82219 -0.20907,-0.51144 -0.0743,-1.1079 0.33555,-1.4838 0.12899,-0.11792 0.14467,-0.31532 0.0365,-0.45244 -0.28144,-0.35739 -0.60132,-0.6802 -0.95059,-0.95998 -0.13676,-0.10976 -0.33742,-0.0945 -0.45602,0.0368 -0.35765,0.3961 -1.0001,0.54331 -1.4965,0.33617 -0.51662,-0.21731 -0.84239,-0.74079 -0.81051,-1.3027 0.0105,-0.1765 -0.11851,-0.32997 -0.29448,-0.35046 -0.4482,-0.0518 -0.90035,-0.0535 -1.3499,-0.004 -0.17396,0.0192 -0.30295,0.16904 -0.2971,0.34332 0.0195,0.55639 -0.31015,1.0707 -0.82164,1.2802 -0.49049,0.20034 -1.1284,0.0544 -1.4854,-0.33819 -0.11797,-0.12931 -0.31537,-0.1452 -0.45281,-0.0381 -0.35962,0.28215 -0.68669,0.60523 -0.97072,0.95968 -0.11078,0.13778 -0.0945,0.33751 0.0358,0.45606 0.41762,0.37818 0.55247,0.9798 0.33551,1.4971 -0.20714,0.49321 -0.71929,0.81108 -1.3056,0.81108 -0.19026,-0.006 -0.32577,0.12157 -0.34658,0.29455 -0.0528,0.45079 -0.0534,0.91012 -0.003,1.3646 0.0188,0.16941 0.22152,0.29505 0.39347,0.29505 0.52251,-0.0134 1.0242,0.31014 1.2346,0.82224 0.20976,0.51143 0.0749,1.1075 -0.33552,1.4837 -0.12837,0.11793 -0.14466,0.31501 -0.0365,0.45214 0.27881,0.35511 0.59873,0.67824 0.94925,0.96034 0.13747,0.11078 0.33751,0.0951 0.45669,-0.0362 0.35899,-0.39707 1.0014,-0.54402 1.4959,-0.33649 0.51791,0.21665 0.84369,0.74009 0.81181,1.3023 -0.0103,0.17659 0.11922,0.33032 0.29447,0.3505 0.22929,0.0268 0.45995,0.0401 0.69125,0.0401 0.21955,0 0.43914,-0.0121 0.6587,-0.0365 0.174,-0.0192 0.30291,-0.16905 0.29706,-0.34363 -0.0201,-0.55608 0.31015,-1.0704 0.82096,-1.2796 0.4938,-0.20169 1.129,-0.0541 1.486,0.33809 0.11864,0.12904 0.31465,0.14462 0.45285,0.0379 0.35896,-0.28148 0.68535,-0.6043 0.97072,-0.95972 0.11073,-0.13748 0.0951,-0.33751 -0.0359,-0.45602 -0.41762,-0.37819 -0.55314,-0.97989 -0.33618,-1.4969 0.20397,-0.48665 0.6971,-0.8134 1.2275,-0.8134 l 0.0742,0.001 c 0.17204,0.014 0.33033,-0.11855 0.35118,-0.29416 0.0529,-0.45119 0.0535,-0.91011 0.002,-1.3646 z m -5.9531,2.6804 c -1.1037,0 -2.0014,-0.89774 -2.0014,-2.0014 0,-1.1036 0.89775,-2.0014 2.0014,-2.0014 1.1036,0 2.0014,0.89779 2.0014,2.0014 0,1.1037 -0.89776,2.0014 -2.0014,2.0014 z"
       clip-rule="evenodd"
       fill="#808080"
       fill-rule="evenodd"
       stroke-width="0.058824"
       id="path425" />
  </g>
  <use
     id="left-inactive"
     transform="translate(4,1e-4)"
     width="100%"
     height="100%"
     xlink:href="#left-active" />
  <use
     id="right-inactive"
     transform="matrix(-1,0,0,1,139,1e-4)"
     width="100%"
     height="100%"
     xlink:href="#left-active" />
  <use
     id="right-active"
     transform="matrix(-1,0,0,1,135,1e-4)"
     width="100%"
     height="100%"
     xlink:href="#left-active" />
  <use
     id="bottom-left-inactive"
     transform="translate(0,16)"
     width="100%"
     height="100%"
     xlink:href="#bottom-left-active" />
  <use
     id="bottom-inactive"
     transform="translate(0,16)"
     width="100%"
     height="100%"
     xlink:href="#bottom-active" />
  <use
     id="bottom-right-active"
     transform="matrix(-1,0,0,1,218,1e-4)"
     width="100%"
     height="100%"
     xlink:href="#bottom-left-active" />
  <use
     id="bottom-right-inactive"
     transform="matrix(-1,0,0,1,218,16)"
     width="100%"
     height="100%"
     xlink:href="#bottom-left-active" />
  <use
     id="top-left-inactive"
     transform="translate(14)"
     width="100%"
     height="100%"
     xlink:href="#top-left-active" />
  <use
     id="top-right-active"
     transform="matrix(-1,0,0,1,46,0)"
     width="100%"
     height="100%"
     xlink:href="#top-left-active" />
  <g
     id="top-left-active"
     transform="translate(15 -547.36)">
    <g
       transform="translate(-3)"
       id="g440">
      <path
         d="m -2,725.36 c 0,0 -0.7512501,0.0971 -1.28361,0.28213 -0.4477671,0.15565 -1.1032802,0.50996 -1.4997691,0.7698 -0.3676714,0.24096 -0.7031146,0.5317 -1.0175944,0.83886 -0.2869929,0.28031 -0.547501,0.58868 -0.7872047,0.91036 -0.3184804,0.4274 -0.4847175,0.66434 -0.8599378,1.34812 C -7.8267035,730.19919 -8,731.13778 -8,731.13778 V 751.36 H 3 v -26 z"
         fill="#373737"
         stroke-linecap="round"
         stroke-linejoin="round"
         stroke-width="7.3694"
         style="stroke:none;stroke-width:7.23125;stroke-dasharray:none;paint-order:stroke fill markers"
         id="path438"
         sodipodi:nodetypes="csssssccccc" />
    </g>
  </g>
  <use
     id="top-right-inactive"
     transform="matrix(-1,0,0,1,60,3e-5)"
     width="100%"
     height="100%"
     xlink:href="#top-left-active" />
</svg>
